<svg width="30" height="28" viewBox="0 0 30 28" fill="none" xmlns="http://www.w3.org/2000/svg">
<g clip-path="url(#clip0_1742_940)">
<path fill-rule="evenodd" clip-rule="evenodd" d="M0 10.2671C0.0245908 9.24881 0.0863294 6.75671 0.133157 5.28811C0.193849 3.4095 0.567943 2.26519 1.302 1.5765C2.3152 0.625998 3.49687 0.399016 6.31801 0.237005C12.8547 -0.138717 19.5089 -0.0867411 27.848 0.530063C28.7155 0.594204 29.0441 0.766721 29.2149 0.890856C29.5835 1.15793 29.6306 1.45762 29.7282 3.02133C29.785 3.91599 29.8982 6.30358 29.9589 7.61598C27.0826 7.46005 22.2016 7.1952 17.9484 7.14985C13.6958 7.10451 9.86745 7.17695 9.41305 7.23833C8.48357 7.36357 8.05715 7.82251 7.93184 8.02378L30 12.3469V15.75L0 10.2671Z" fill="#010001"/>
<path fill-rule="evenodd" clip-rule="evenodd" d="M0 12.25L30 17.9346C29.9793 18.7643 29.9124 21.3978 29.8624 22.9071C29.8017 24.717 29.4272 25.8188 28.6932 26.4821C27.6804 27.3973 26.4989 27.6153 23.6779 27.7721C17.1421 28.1336 10.4894 28.0833 2.15113 27.4894C1.28377 27.4279 0.95603 27.2618 0.784442 27.142C0.415893 26.8849 0.368811 26.5969 0.270984 25.091C0.205069 24.0832 0.06173 21.109 0.0151709 20.1249C3.8835 20.3908 9.8258 20.5854 14.6692 20.5854C15.8853 20.5854 19.0474 20.6245 19.8886 20.6245C20.5462 20.6245 21.4313 20.4408 21.8794 19.7285L0 15.9307V12.25Z" fill="#010001"/>
</g>
<defs>
<clipPath id="clip0_1742_940">
<rect width="30" height="28" fill="white"/>
</clipPath>
</defs>
</svg>
