<svg width="66" height="65" viewBox="0 0 66 65" fill="none" xmlns="http://www.w3.org/2000/svg">
<circle cx="33.1724" cy="32.5" r="32.5" fill="#6207BD"/>
<circle cx="33.1724" cy="32.5" r="32.1684" stroke="black" stroke-opacity="0.29" stroke-width="0.663265"/>
<mask id="mask0_2023_328" style="mask-type:alpha" maskUnits="userSpaceOnUse" x="17" y="15" width="34" height="34">
<rect x="17.9173" y="15.9185" width="32.712" height="32.712" fill="#D9D9D9"/>
</mask>
<g mask="url(#mask0_2023_328)">
<path d="M30.7083 27.3464V25.9834H41.9272V27.3464H30.7083ZM30.7083 31.1209V29.7579H41.9272V31.1209H30.7083ZM34.0637 44.5413H26.0953C25.3263 44.5413 24.6798 44.2792 24.1557 43.7549C23.6314 43.2308 23.3693 42.5843 23.3693 41.8153V38.0408H27.4583V20.0073H45.1772V30.7621C44.9326 30.7689 44.6997 30.7946 44.4787 30.8391C44.2577 30.8838 44.0362 30.9472 43.8142 31.0292V21.3703H28.8213V38.0408H36.1082L34.7452 39.4038H24.7323V41.8153C24.7323 42.2015 24.8629 42.5252 25.1241 42.7864C25.3854 43.0477 25.7091 43.1783 26.0953 43.1783H34.0637V44.5413ZM37.3138 44.5413V41.5298L44.5823 34.2953C44.7168 34.1606 44.8566 34.0697 45.0018 34.0227C45.1467 33.9754 45.2917 33.9518 45.4369 33.9518C45.5871 33.9518 45.739 33.9811 45.8928 34.0397C46.0466 34.0981 46.182 34.1859 46.299 34.3031L47.5598 35.5901C47.6718 35.7246 47.7569 35.8645 47.8153 36.0096C47.8739 36.1545 47.9032 36.2995 47.9032 36.4444C47.9032 36.5896 47.8753 36.736 47.8194 36.8836C47.7635 37.0313 47.677 37.1724 47.5598 37.3068L40.3256 44.5413H37.3138ZM38.5197 43.3357H39.8145L44.5404 38.6017L43.9008 37.9543L43.2796 37.2884L38.5197 42.0409V43.3357ZM43.9008 37.9543L43.2796 37.2884L44.5404 38.6017L43.9008 37.9543Z" fill="white"/>
</g>
</svg>
