<svg width="206" height="21" viewBox="0 0 206 21" fill="none" xmlns="http://www.w3.org/2000/svg">
<g clip-path="url(#clip0_1693_61)">
<mask id="mask0_1693_61" style="mask-type:luminance" maskUnits="userSpaceOnUse" x="0" y="0" width="206" height="21">
<path d="M205.518 0H0V20.314H205.518V0Z" fill="white"/>
</mask>
<g mask="url(#mask0_1693_61)">
<path d="M25.399 19.801L21.707 6.227L16.236 18.788C16.1226 19.1574 15.8937 19.4807 15.5829 19.7104C15.2722 19.9401 14.8959 20.0641 14.5095 20.0641C14.1231 20.0641 13.7468 19.9401 13.4361 19.7104C13.1253 19.4807 12.8964 19.1574 12.783 18.788L7.339 6.227L3.646 19.801H0.328003L5.295 1.632C5.34719 1.23276 5.54889 0.868183 5.85941 0.611867C6.16992 0.355551 6.56611 0.226583 6.968 0.250998C7.33321 0.248929 7.6906 0.35672 7.99375 0.560371C8.29691 0.764022 8.53183 1.05412 8.668 1.393L14.616 15.044L20.565 1.393C20.6841 1.05871 20.9038 0.769476 21.1938 0.565005C21.4839 0.360534 21.8301 0.250847 22.185 0.250998C22.5769 0.244371 22.9577 0.381024 23.256 0.6353C23.5543 0.889577 23.7495 1.24399 23.805 1.632L28.746 19.801H25.399Z" stroke="white" stroke-width="1.5"/>
<path d="M40.0549 19.797C34.6629 19.797 30.6799 15.548 30.6799 9.944C30.6177 8.69277 30.817 7.4423 31.2651 6.27239C31.7131 5.10248 32.4002 4.03881 33.2823 3.14925C34.1644 2.25969 35.2223 1.56378 36.3884 1.10591C37.5545 0.648047 38.8032 0.43828 40.0549 0.489999H44.755C46.013 0.42772 47.2701 0.629613 48.4454 1.08267C49.6207 1.53574 50.688 2.22992 51.5787 3.12053C52.4694 4.01113 53.1637 5.07841 53.6169 6.25363C54.0701 7.42885 54.2721 8.68596 54.21 9.944C54.21 15.544 50.253 19.797 44.755 19.797H40.0549ZM44.755 16.424C45.5775 16.4364 46.3938 16.2796 47.1532 15.9632C47.9126 15.6468 48.5988 15.1776 49.1692 14.5848C49.7396 13.992 50.182 13.2882 50.4689 12.5172C50.7558 11.7462 50.8811 10.9245 50.837 10.103C50.8802 9.28558 50.7537 8.46806 50.4654 7.70193C50.1772 6.9358 49.7334 6.23765 49.1621 5.65147C48.5907 5.06528 47.9042 4.60375 47.1457 4.29595C46.3872 3.98814 45.5732 3.84073 44.755 3.863H40.0549C39.2427 3.84949 38.4364 4.00357 37.6863 4.3156C36.9362 4.62763 36.2585 5.09092 35.6955 5.67656C35.1325 6.26219 34.6962 6.9576 34.414 7.71936C34.1317 8.48112 34.0095 9.29289 34.0549 10.104C34.0081 10.9193 34.1288 11.7355 34.4095 12.5023C34.6903 13.2692 35.1252 13.9704 35.6874 14.5626C36.2496 15.1549 36.9271 15.6257 37.6783 15.946C38.4295 16.2663 39.2383 16.4293 40.0549 16.425L44.755 16.424Z" stroke="white" stroke-width="1.5"/>
<path d="M64.0109 19.797V3.863H56.6809V0.489998H74.7139V3.863H67.3839V19.797H64.0109Z" stroke="white" stroke-width="1.5"/>
<path d="M86.6371 19.797C81.2461 19.797 77.2621 15.548 77.2621 9.944C77.1999 8.69277 77.3992 7.4423 77.8472 6.27239C78.2953 5.10248 78.9823 4.03881 79.8644 3.14925C80.7466 2.25969 81.8044 1.56378 82.9705 1.10591C84.1366 0.648047 85.3854 0.43828 86.6371 0.489999H91.3371C92.5951 0.42772 93.8523 0.629613 95.0275 1.08267C96.2028 1.53574 97.2702 2.22992 98.1609 3.12053C99.0516 4.01113 99.7459 5.07841 100.199 6.25363C100.652 7.42885 100.854 8.68596 100.792 9.944C100.792 15.544 96.8351 19.797 91.3371 19.797H86.6371ZM91.3371 16.424C92.1597 16.4364 92.976 16.2796 93.7354 15.9632C94.4947 15.6468 95.1809 15.1776 95.7513 14.5848C96.3217 13.992 96.7641 13.2882 97.051 12.5172C97.3379 11.7462 97.4632 10.9245 97.4191 10.103C97.4625 9.2855 97.3361 8.46787 97.0479 7.70162C96.7597 6.93537 96.316 6.2371 95.7446 5.65081C95.1733 5.06451 94.4867 4.60289 93.7281 4.29503C92.9695 3.98716 92.1555 3.83972 91.3371 3.862H86.6371C85.8248 3.84849 85.0185 4.00257 84.2684 4.3146C83.5184 4.62663 82.8407 5.08992 82.2777 5.67556C81.7146 6.26119 81.2784 6.95659 80.9961 7.71836C80.7139 8.48012 80.5916 9.29189 80.6371 10.103C80.5902 10.9183 80.7109 11.7345 80.9917 12.5013C81.2724 13.2682 81.7073 13.9694 82.2695 14.5616C82.8317 15.1539 83.5093 15.6247 84.2605 15.945C85.0117 16.2653 85.8205 16.4284 86.6371 16.424H91.3371Z" stroke="white" stroke-width="1.5"/>
<path d="M122.781 19.797L117.894 14.432H110.67V11.458H118.717C121.133 11.458 122.408 10.077 122.408 7.58C122.408 5.083 121.027 3.862 118.717 3.862H108.201V19.797H104.855V0.489998H118.718C123.126 0.489998 125.729 3.225 125.729 7.528C125.729 10.715 124.242 12.972 121.745 13.928L127.562 19.797H122.781Z" stroke="white" stroke-width="1.5"/>
<path d="M139.006 19.797C133.615 19.797 129.631 15.548 129.631 9.944C129.569 8.69268 129.768 7.44211 130.216 6.27207C130.664 5.10204 131.351 4.03825 132.233 3.14858C133.115 2.25892 134.173 1.56291 135.339 1.10499C136.505 0.647059 137.754 0.437266 139.006 0.488995H149.468V3.863H139.006C138.194 3.84949 137.387 4.00356 136.637 4.31559C135.887 4.62763 135.21 5.09092 134.647 5.67655C134.084 6.26219 133.647 6.95759 133.365 7.71936C133.083 8.48112 132.961 9.29289 133.006 10.104C132.959 10.9193 133.08 11.7355 133.361 12.5023C133.641 13.2692 134.076 13.9704 134.638 14.5626C135.201 15.1549 135.878 15.6257 136.629 15.946C137.381 16.2663 138.189 16.4293 139.006 16.425H149.468V19.798L139.006 19.797Z" stroke="white" stroke-width="1.5"/>
<path d="M157.091 0.489998H153.718V19.797H157.091V0.489998Z" stroke="white" stroke-width="1.5"/>
<path d="M168.135 19.797V3.863H160.805V0.489998H178.837V3.863H171.507V19.797H168.135Z" stroke="white" stroke-width="1.5"/>
<path d="M191.322 19.797V12.467L181.07 0.489998H185.612L193.128 9.39L200.671 0.489998H204.971L194.695 12.468V19.798L191.322 19.797Z" stroke="white" stroke-width="1.5"/>
<path d="M25.399 19.801L21.707 6.227L16.236 18.788C16.1226 19.1574 15.8937 19.4807 15.5829 19.7104C15.2722 19.9401 14.8959 20.0641 14.5095 20.0641C14.1231 20.0641 13.7468 19.9401 13.4361 19.7104C13.1253 19.4807 12.8964 19.1574 12.783 18.788L7.339 6.227L3.646 19.801H0.328003L5.295 1.632C5.34719 1.23276 5.54889 0.868183 5.85941 0.611867C6.16992 0.355551 6.56611 0.226583 6.968 0.250998C7.33321 0.248929 7.6906 0.35672 7.99375 0.560371C8.29691 0.764022 8.53183 1.05412 8.668 1.393L14.616 15.044L20.565 1.393C20.6841 1.05871 20.9038 0.769476 21.1938 0.565005C21.4839 0.360534 21.8301 0.250847 22.185 0.250998C22.5769 0.244371 22.9577 0.381024 23.256 0.6353C23.5543 0.889577 23.7495 1.24399 23.805 1.632L28.746 19.801H25.399Z" fill="white"/>
<path d="M40.0549 19.797C34.6629 19.797 30.6799 15.548 30.6799 9.944C30.6177 8.69277 30.817 7.4423 31.2651 6.27239C31.7131 5.10248 32.4002 4.03881 33.2823 3.14925C34.1644 2.25969 35.2223 1.56378 36.3884 1.10591C37.5545 0.648047 38.8032 0.43828 40.0549 0.489999H44.755C46.013 0.42772 47.2701 0.629613 48.4454 1.08267C49.6207 1.53574 50.688 2.22992 51.5787 3.12053C52.4694 4.01113 53.1637 5.07841 53.6169 6.25363C54.0701 7.42885 54.2721 8.68596 54.21 9.944C54.21 15.544 50.253 19.797 44.755 19.797H40.0549ZM44.755 16.424C45.5775 16.4364 46.3938 16.2796 47.1532 15.9632C47.9126 15.6468 48.5988 15.1776 49.1692 14.5848C49.7396 13.992 50.1819 13.2882 50.4689 12.5172C50.7558 11.7462 50.8811 10.9245 50.837 10.103C50.8802 9.28558 50.7537 8.46806 50.4654 7.70193C50.1772 6.9358 49.7334 6.23765 49.1621 5.65147C48.5907 5.06528 47.9042 4.60375 47.1457 4.29595C46.3872 3.98814 45.5732 3.84073 44.755 3.863H40.0549C39.2427 3.84949 38.4364 4.00357 37.6863 4.3156C36.9362 4.62763 36.2585 5.09092 35.6955 5.67656C35.1325 6.26219 34.6962 6.95759 34.414 7.71936C34.1317 8.48112 34.0095 9.29289 34.0549 10.104C34.0081 10.9193 34.1288 11.7355 34.4095 12.5023C34.6903 13.2692 35.1252 13.9704 35.6874 14.5626C36.2496 15.1549 36.9271 15.6257 37.6783 15.946C38.4295 16.2663 39.2383 16.4293 40.0549 16.425L44.755 16.424Z" fill="white"/>
<path d="M64.0109 19.797V3.863H56.6809V0.489998H74.7139V3.863H67.3839V19.797H64.0109Z" fill="white"/>
<path d="M86.6371 19.797C81.2461 19.797 77.2621 15.548 77.2621 9.944C77.1999 8.69277 77.3992 7.4423 77.8472 6.27239C78.2953 5.10248 78.9823 4.03881 79.8644 3.14925C80.7466 2.25969 81.8044 1.56378 82.9705 1.10591C84.1366 0.648047 85.3854 0.43828 86.6371 0.489999H91.3371C92.5951 0.42772 93.8523 0.629613 95.0275 1.08267C96.2028 1.53574 97.2702 2.22992 98.1609 3.12053C99.0516 4.01113 99.7458 5.07841 100.199 6.25363C100.652 7.42885 100.854 8.68596 100.792 9.944C100.792 15.544 96.8351 19.797 91.3371 19.797H86.6371ZM91.3371 16.424C92.1597 16.4364 92.976 16.2796 93.7354 15.9632C94.4947 15.6468 95.1809 15.1776 95.7513 14.5848C96.3217 13.992 96.7641 13.2882 97.051 12.5172C97.3379 11.7462 97.4632 10.9245 97.4191 10.103C97.4625 9.2855 97.3361 8.46787 97.0479 7.70162C96.7597 6.93537 96.316 6.2371 95.7446 5.65081C95.1733 5.06451 94.4867 4.60289 93.7281 4.29503C92.9695 3.98716 92.1555 3.83972 91.3371 3.862H86.6371C85.8248 3.84849 85.0185 4.00257 84.2684 4.3146C83.5184 4.62663 82.8407 5.08992 82.2777 5.67556C81.7146 6.26119 81.2784 6.95659 80.9961 7.71836C80.7139 8.48012 80.5916 9.29189 80.6371 10.103C80.5902 10.9183 80.7109 11.7345 80.9917 12.5013C81.2724 13.2682 81.7073 13.9694 82.2695 14.5616C82.8317 15.1539 83.5093 15.6247 84.2605 15.945C85.0117 16.2653 85.8205 16.4284 86.6371 16.424H91.3371Z" fill="white"/>
<path d="M122.781 19.797L117.894 14.432H110.67V11.458H118.717C121.133 11.458 122.408 10.077 122.408 7.58C122.408 5.083 121.027 3.862 118.717 3.862H108.201V19.797H104.855V0.489998H118.718C123.126 0.489998 125.729 3.225 125.729 7.528C125.729 10.715 124.242 12.972 121.745 13.928L127.562 19.797H122.781Z" fill="white"/>
<path d="M139.006 19.797C133.615 19.797 129.631 15.548 129.631 9.944C129.569 8.69268 129.768 7.44211 130.216 6.27207C130.664 5.10204 131.351 4.03825 132.233 3.14858C133.115 2.25892 134.173 1.56291 135.339 1.10499C136.505 0.647059 137.754 0.437266 139.006 0.488995H149.468V3.863H139.006C138.194 3.84949 137.387 4.00356 136.637 4.31559C135.887 4.62763 135.21 5.09092 134.647 5.67655C134.084 6.26219 133.647 6.95759 133.365 7.71936C133.083 8.48112 132.961 9.29289 133.006 10.104C132.959 10.9193 133.08 11.7355 133.361 12.5023C133.641 13.2692 134.076 13.9704 134.638 14.5626C135.201 15.1549 135.878 15.6257 136.629 15.946C137.381 16.2663 138.189 16.4293 139.006 16.425H149.468V19.798L139.006 19.797Z" fill="white"/>
<path d="M157.091 0.489998H153.718V19.797H157.091V0.489998Z" fill="white"/>
<path d="M168.135 19.797V3.863H160.805V0.489998H178.837V3.863H171.507V19.797H168.135Z" fill="white"/>
<path d="M191.322 19.797V12.467L181.07 0.489998H185.612L193.128 9.39L200.671 0.489998H204.971L194.695 12.468V19.798L191.322 19.797Z" fill="white"/>
</g>
</g>
<defs>
<clipPath id="clip0_1693_61">
<rect width="205.518" height="20.314" fill="white"/>
</clipPath>
</defs>
</svg>
