<svg width="205" height="56" viewBox="0 0 205 56" fill="none" xmlns="http://www.w3.org/2000/svg">
<rect opacity="0.25" x="150.446" y="0.70632" width="53.6803" height="53.6803" rx="26.8401" stroke="white" stroke-width="1.41264"/>
<path fill-rule="evenodd" clip-rule="evenodd" d="M177.021 23.9105L177.061 24.5826L176.397 24.5003C173.982 24.1848 171.872 23.115 170.081 21.3181L169.205 20.4265L168.98 21.0849C168.502 22.5526 168.807 24.1025 169.802 25.145C170.333 25.7211 170.214 25.8034 169.298 25.4605C168.98 25.3507 168.701 25.2684 168.675 25.3096C168.582 25.4056 168.9 26.6538 169.152 27.1476C169.497 27.8334 170.201 28.5055 170.97 28.9033L171.62 29.2188L170.851 29.2325C170.108 29.2325 170.081 29.2462 170.161 29.5343C170.426 30.4258 171.474 31.3723 172.642 31.7838L173.465 32.0718L172.748 32.5107C171.687 33.1417 170.439 33.4983 169.192 33.5258C168.595 33.5395 168.104 33.5943 168.104 33.6355C168.104 33.7727 169.723 34.5408 170.665 34.8425C173.491 35.7341 176.848 35.35 179.37 33.8275C181.161 32.7439 182.952 30.5904 183.788 28.5055C184.239 27.3945 184.691 25.3645 184.691 24.3906C184.691 23.7596 184.73 23.6773 185.473 22.9229C185.911 22.484 186.323 22.0039 186.402 21.8668C186.535 21.6061 186.522 21.6061 185.845 21.8393C184.717 22.2508 184.558 22.196 185.115 21.5787C185.527 21.1398 186.017 20.3442 186.017 20.111C186.017 20.0699 185.818 20.1385 185.593 20.2619C185.354 20.3991 184.823 20.6048 184.425 20.7283L183.709 20.9615L183.058 20.5088C182.7 20.2619 182.196 19.9876 181.931 19.9053C181.254 19.7133 180.219 19.7407 179.608 19.9602C177.95 20.5774 176.902 22.1685 177.021 23.9105Z" fill="white"/>
<rect opacity="0.25" x="75.5762" y="0.70632" width="53.6803" height="53.6803" rx="26.8401" stroke="#D0FF00" stroke-width="1.41264"/>
<path fill-rule="evenodd" clip-rule="evenodd" d="M97.472 36.7289H93.2341V24.0151H97.472V36.7289Z" fill="#D0FF00"/>
<path fill-rule="evenodd" clip-rule="evenodd" d="M95.3405 21.1896H95.3164C94.0517 21.1896 93.2341 20.2474 93.2341 19.0699C93.2341 17.8675 94.0766 16.9517 95.3653 16.9517C96.654 16.9517 97.4476 17.8675 97.472 19.0699C97.472 20.2474 96.654 21.1896 95.3405 21.1896Z" fill="#D0FF00"/>
<path fill-rule="evenodd" clip-rule="evenodd" d="M113.011 36.7286H108.847V30.0829C108.847 28.4137 108.244 27.2746 106.736 27.2746C105.586 27.2746 104.901 28.0425 104.6 28.7842C104.489 29.05 104.462 29.4203 104.462 29.7916V36.7289H100.297C100.297 36.7289 100.352 25.4727 100.297 24.3072H104.462V26.0666C105.015 25.2208 106.005 24.0151 108.216 24.0151C110.957 24.0151 113.011 25.7909 113.011 29.6063L113.011 36.7286Z" fill="#D0FF00"/>
<rect opacity="0.25" x="0.70632" y="0.70632" width="53.6803" height="53.6803" rx="26.8401" stroke="white" stroke-width="1.41264"/>
<path fill-rule="evenodd" clip-rule="evenodd" d="M24.7929 38.1413V27.5456H22.6023V23.8942H24.7929V21.7019C24.7929 18.723 26.0299 16.9517 29.5443 16.9517H32.4701V20.6035H30.6412C29.2732 20.6035 29.1827 21.1138 29.1827 22.0662L29.1777 23.8938H32.4908L32.1031 27.5452H29.1777V38.1413H24.7929Z" fill="white"/>
</svg>
