<svg width="35" height="35" viewBox="0 0 35 35" fill="none" xmlns="http://www.w3.org/2000/svg">
<path d="M11.4478 16.0417L27.7082 16.0417C28.1214 16.0417 28.4677 16.1814 28.7472 16.4609C29.0267 16.7405 29.1665 17.0868 29.1665 17.5C29.1665 17.9132 29.0267 18.2596 28.7472 18.5391C28.4677 18.8186 28.1214 18.9583 27.7082 18.9583L11.4478 18.9583L15.604 23.1146C15.8957 23.4063 16.0354 23.7465 16.0233 24.1354C16.0111 24.5243 15.8714 24.8646 15.604 25.1563C15.3123 25.4479 14.966 25.5998 14.5649 25.612C14.1639 25.6241 13.8175 25.4844 13.5259 25.1927L6.854 18.5208C6.70817 18.375 6.60487 18.217 6.54411 18.0469C6.48334 17.8767 6.45296 17.6945 6.45296 17.5C6.45296 17.3056 6.48334 17.1233 6.54411 16.9531C6.60487 16.783 6.70817 16.625 6.854 16.4792L13.5259 9.8073C13.8175 9.51564 14.1639 9.37588 14.5649 9.38803C14.966 9.40018 15.3123 9.55209 15.604 9.84376C15.8714 10.1354 16.0111 10.4757 16.0233 10.8646C16.0354 11.2535 15.8957 11.5938 15.604 11.8854L11.4478 16.0417Z" fill="white"/>
</svg>
