<svg width="35" height="35" viewBox="0 0 35 35" fill="none" xmlns="http://www.w3.org/2000/svg">
<circle cx="17.6597" cy="17.458" r="16.9126" stroke="white" stroke-opacity="0.29" stroke-width="0.626392"/>
<mask id="mask0_2019_120" style="mask-type:alpha" maskUnits="userSpaceOnUse" x="9" y="8" width="18" height="19">
<rect x="9.57416" y="8.66934" width="17.3381" height="17.3381" fill="#D9D9D9"/>
</mask>
<g mask="url(#mask0_2019_120)">
<path d="M16.3538 14.7265V14.0041H22.3001V14.7265H16.3538ZM16.3538 16.7271V16.0046H22.3001V16.7271H16.3538ZM18.1323 23.8402H13.9088C13.5012 23.8402 13.1586 23.7013 12.8808 23.4234C12.6029 23.1456 12.464 22.8029 12.464 22.3954V20.3948H14.6312V10.8366H24.0227V16.5369C23.893 16.5405 23.7696 16.5541 23.6525 16.5777C23.5353 16.6014 23.4179 16.635 23.3003 16.6785V11.559H15.3536V20.3948H19.2159L18.4935 21.1172H13.1864V22.3954C13.1864 22.6001 13.2556 22.7716 13.3941 22.9101C13.5325 23.0486 13.7041 23.1178 13.9088 23.1178H18.1323V23.8402ZM19.8549 23.8402V22.244L23.7074 18.4096C23.7787 18.3382 23.8528 18.29 23.9297 18.2651C24.0065 18.2401 24.0834 18.2275 24.1603 18.2275C24.2399 18.2275 24.3205 18.2431 24.402 18.2741C24.4835 18.3051 24.5553 18.3516 24.6173 18.4137L25.2855 19.0959C25.3449 19.1672 25.39 19.2413 25.421 19.3182C25.452 19.395 25.4676 19.4718 25.4676 19.5487C25.4676 19.6256 25.4528 19.7032 25.4231 19.7815C25.3935 19.8597 25.3476 19.9345 25.2855 20.0058L21.4513 23.8402H19.8549ZM20.494 23.2012H21.1803L23.6852 20.6921L23.3462 20.3489L23.0169 19.996L20.494 22.5149V23.2012ZM23.3462 20.3489L23.0169 19.996L23.6852 20.6921L23.3462 20.3489Z" fill="white"/>
</g>
</svg>
