<svg width="98" height="98" viewBox="0 0 98 98" fill="none" xmlns="http://www.w3.org/2000/svg">
<circle cx="49" cy="49" r="48.5" stroke="black" stroke-opacity="0.29"/>
<mask id="mask0_1686_789" style="mask-type:alpha" maskUnits="userSpaceOnUse" x="26" y="24" width="50" height="50">
<rect x="26" y="24" width="49.3196" height="49.3196" fill="#D9D9D9"/>
</mask>
<g mask="url(#mask0_1686_789)">
<path d="M45.285 41.2301V39.1751H62.1996V41.2301H45.285ZM45.285 46.9209V44.8659H62.1996V46.9209H45.285ZM50.3439 67.1547H38.3299C37.1706 67.1547 36.1958 66.7595 35.4057 65.969C34.6152 65.1789 34.22 64.2041 34.22 63.0448V57.354H40.3849V30.165H67.0997V46.3799C66.7308 46.3902 66.3798 46.4289 66.0465 46.496C65.7133 46.5635 65.3793 46.659 65.0447 46.7827V32.22H42.4399V57.354H53.4264L51.3714 59.409H36.275V63.0448C36.275 63.627 36.4719 64.1151 36.8658 64.5089C37.2596 64.9028 37.7477 65.0997 38.3299 65.0997H50.3439V67.1547ZM55.244 67.1547V62.6142L66.2027 51.7069C66.4054 51.5038 66.6163 51.3668 66.8351 51.2959C67.0536 51.2247 67.2723 51.1891 67.4912 51.1891C67.7176 51.1891 67.9467 51.2332 68.1786 51.3216C68.4104 51.4096 68.6146 51.542 68.7909 51.7187L70.6918 53.6591C70.8607 53.8619 70.9891 54.0727 71.0771 54.2916C71.1655 54.5101 71.2097 54.7286 71.2097 54.9471C71.2097 55.166 71.1675 55.3867 71.0833 55.6093C70.999 55.8319 70.8685 56.0446 70.6918 56.2474L59.785 67.1547H55.244ZM57.0621 65.3371H59.0144L66.1395 58.1996L65.1752 57.2235L64.2386 56.2197L57.0621 63.3849V65.3371ZM65.1752 57.2235L64.2386 56.2197L66.1395 58.1996L65.1752 57.2235Z" fill="black"/>
</g>
</svg>
