<svg width="206" height="21" viewBox="0 0 206 21" fill="none" xmlns="http://www.w3.org/2000/svg">
<g clip-path="url(#clip0_1737_104)">
<mask id="mask0_1737_104" style="mask-type:luminance" maskUnits="userSpaceOnUse" x="0" y="0" width="206" height="21">
<path d="M205.518 0H0V20.314H205.518V0Z" fill="white"/>
</mask>
<g mask="url(#mask0_1737_104)">
<path d="M25.3991 19.801L21.7071 6.227L16.2361 18.788C16.1227 19.1574 15.8938 19.4807 15.5831 19.7104C15.2723 19.9401 14.8961 20.0641 14.5096 20.0641C14.1232 20.0641 13.7469 19.9401 13.4362 19.7104C13.1254 19.4807 12.8965 19.1574 12.7831 18.788L7.33913 6.227L3.64613 19.801H0.328125L5.29513 1.632C5.34731 1.23276 5.54902 0.868187 5.85953 0.611871C6.17004 0.355555 6.56623 0.226587 6.96813 0.251001C7.33333 0.248933 7.69072 0.356724 7.99388 0.560375C8.29704 0.764026 8.53195 1.05413 8.66812 1.393L14.6161 15.044L20.5651 1.393C20.6842 1.05871 20.9039 0.769479 21.194 0.565009C21.484 0.360538 21.8302 0.25085 22.1851 0.251001C22.577 0.244375 22.9579 0.381028 23.2561 0.635304C23.5544 0.889581 23.7496 1.24399 23.8051 1.632L28.7461 19.801H25.3991Z" stroke="black" stroke-width="1.5"/>
<path d="M40.0551 19.797C34.6631 19.797 30.6801 15.548 30.6801 9.944C30.6179 8.69277 30.8171 7.4423 31.2652 6.27239C31.7133 5.10248 32.4003 4.03881 33.2824 3.14926C34.1645 2.2597 35.2224 1.56378 36.3885 1.10592C37.5546 0.648051 38.8034 0.438284 40.0551 0.490003H44.7551C46.0131 0.427724 47.2702 0.629617 48.4455 1.08268C49.6208 1.53574 50.6881 2.22992 51.5788 3.12053C52.4695 4.01113 53.1638 5.07841 53.617 6.25363C54.0702 7.42886 54.2722 8.68596 54.2101 9.944C54.2101 15.544 50.2531 19.797 44.7551 19.797H40.0551ZM44.7551 16.424C45.5776 16.4364 46.394 16.2796 47.1533 15.9632C47.9127 15.6468 48.5989 15.1776 49.1693 14.5848C49.7397 13.992 50.1821 13.2882 50.469 12.5172C50.7559 11.7462 50.8812 10.9245 50.8371 10.103C50.8803 9.28558 50.7538 8.46806 50.4656 7.70193C50.1773 6.9358 49.7335 6.23766 49.1622 5.65147C48.5908 5.06528 47.9043 4.60376 47.1458 4.29595C46.3873 3.98815 45.5733 3.84074 44.7551 3.863H40.0551C39.2428 3.8495 38.4365 4.00357 37.6864 4.3156C36.9363 4.62763 36.2587 5.09093 35.6956 5.67656C35.1326 6.2622 34.6964 6.9576 34.4141 7.71936C34.1318 8.48113 34.0096 9.2929 34.0551 10.104C34.0082 10.9193 34.1289 11.7355 34.4096 12.5023C34.6904 13.2692 35.1253 13.9704 35.6875 14.5626C36.2497 15.1549 36.9273 15.6257 37.6784 15.946C38.4296 16.2663 39.2385 16.4294 40.0551 16.425L44.7551 16.424Z" stroke="black" stroke-width="1.5"/>
<path d="M64.0112 19.797V3.863H56.6812V0.490002H74.7142V3.863H67.3842V19.797H64.0112Z" stroke="black" stroke-width="1.5"/>
<path d="M86.6371 19.797C81.2461 19.797 77.2621 15.548 77.2621 9.944C77.1999 8.69277 77.3992 7.4423 77.8472 6.27239C78.2953 5.10248 78.9823 4.03881 79.8644 3.14926C80.7466 2.2597 81.8044 1.56378 82.9705 1.10592C84.1366 0.648051 85.3854 0.438284 86.6371 0.490003H91.3371C92.5951 0.427724 93.8523 0.629617 95.0275 1.08268C96.2028 1.53574 97.2702 2.22992 98.1609 3.12053C99.0516 4.01113 99.7459 5.07841 100.199 6.25363C100.652 7.42886 100.854 8.68596 100.792 9.944C100.792 15.544 96.8351 19.797 91.3371 19.797H86.6371ZM91.3371 16.424C92.1597 16.4364 92.976 16.2796 93.7354 15.9632C94.4947 15.6468 95.1809 15.1776 95.7513 14.5848C96.3217 13.992 96.7641 13.2882 97.051 12.5172C97.3379 11.7462 97.4632 10.9245 97.4191 10.103C97.4625 9.2855 97.3361 8.46787 97.0479 7.70162C96.7597 6.93537 96.316 6.2371 95.7446 5.65081C95.1733 5.06451 94.4867 4.60289 93.7281 4.29503C92.9695 3.98716 92.1555 3.83973 91.3371 3.862H86.6371C85.8248 3.8485 85.0185 4.00257 84.2684 4.3146C83.5184 4.62663 82.8407 5.08993 82.2777 5.67556C81.7146 6.2612 81.2784 6.9566 80.9961 7.71836C80.7139 8.48013 80.5916 9.2919 80.6371 10.103C80.5902 10.9183 80.7109 11.7345 80.9917 12.5013C81.2724 13.2682 81.7073 13.9694 82.2695 14.5616C82.8317 15.1539 83.5093 15.6247 84.2605 15.945C85.0117 16.2653 85.8205 16.4284 86.6371 16.424H91.3371Z" stroke="black" stroke-width="1.5"/>
<path d="M122.781 19.797L117.894 14.432H110.67V11.458H118.717C121.133 11.458 122.408 10.077 122.408 7.58C122.408 5.083 121.027 3.862 118.717 3.862H108.201V19.797H104.855V0.490002H118.718C123.126 0.490002 125.729 3.225 125.729 7.528C125.729 10.715 124.242 12.972 121.745 13.928L127.562 19.797H122.781Z" stroke="black" stroke-width="1.5"/>
<path d="M139.006 19.797C133.615 19.797 129.631 15.548 129.631 9.944C129.569 8.69269 129.768 7.44211 130.216 6.27208C130.664 5.10205 131.351 4.03826 132.233 3.14859C133.115 2.25893 134.173 1.56292 135.339 1.10499C136.506 0.647066 137.754 0.437274 139.006 0.489003H149.468V3.863H139.006C138.194 3.8495 137.388 4.00357 136.638 4.3156C135.888 4.62763 135.21 5.09093 134.647 5.67656C134.084 6.2622 133.648 6.9576 133.365 7.71936C133.083 8.48113 132.961 9.2929 133.006 10.104C132.959 10.9193 133.08 11.7355 133.361 12.5023C133.642 13.2692 134.076 13.9704 134.639 14.5626C135.201 15.1549 135.878 15.6257 136.63 15.946C137.381 16.2663 138.19 16.4294 139.006 16.425H149.468V19.798L139.006 19.797Z" stroke="black" stroke-width="1.5"/>
<path d="M157.091 0.490002H153.718V19.797H157.091V0.490002Z" stroke="black" stroke-width="1.5"/>
<path d="M168.135 19.797V3.863H160.805V0.490002H178.837V3.863H171.507V19.797H168.135Z" stroke="black" stroke-width="1.5"/>
<path d="M191.322 19.797V12.467L181.07 0.490002H185.612L193.128 9.39L200.671 0.490002H204.971L194.695 12.468V19.798L191.322 19.797Z" stroke="black" stroke-width="1.5"/>
<path d="M25.3991 19.801L21.7071 6.227L16.2361 18.788C16.1227 19.1574 15.8938 19.4807 15.5831 19.7104C15.2723 19.9401 14.8961 20.0641 14.5096 20.0641C14.1232 20.0641 13.7469 19.9401 13.4362 19.7104C13.1254 19.4807 12.8965 19.1574 12.7831 18.788L7.33913 6.227L3.64613 19.801H0.328125L5.29513 1.632C5.34731 1.23276 5.54902 0.868187 5.85953 0.611871C6.17004 0.355555 6.56623 0.226587 6.96813 0.251001C7.33333 0.248933 7.69072 0.356724 7.99388 0.560375C8.29704 0.764026 8.53195 1.05413 8.66812 1.393L14.6161 15.044L20.5651 1.393C20.6842 1.05871 20.9039 0.769479 21.194 0.565009C21.484 0.360538 21.8302 0.25085 22.1851 0.251001C22.577 0.244375 22.9579 0.381028 23.2561 0.635304C23.5544 0.889581 23.7496 1.24399 23.8051 1.632L28.7461 19.801H25.3991Z" fill="black"/>
<path d="M40.0551 19.797C34.6631 19.797 30.6801 15.548 30.6801 9.944C30.6179 8.69277 30.8171 7.4423 31.2652 6.27239C31.7133 5.10248 32.4003 4.03881 33.2824 3.14926C34.1645 2.2597 35.2224 1.56378 36.3885 1.10592C37.5546 0.648051 38.8034 0.438284 40.0551 0.490003H44.7551C46.0131 0.427724 47.2702 0.629617 48.4455 1.08268C49.6208 1.53574 50.6881 2.22992 51.5788 3.12053C52.4695 4.01113 53.1638 5.07841 53.617 6.25363C54.0702 7.42886 54.2722 8.68596 54.2101 9.944C54.2101 15.544 50.2531 19.797 44.7551 19.797H40.0551ZM44.7551 16.424C45.5776 16.4364 46.394 16.2796 47.1533 15.9632C47.9127 15.6468 48.5989 15.1776 49.1693 14.5848C49.7397 13.992 50.1821 13.2882 50.469 12.5172C50.7559 11.7462 50.8812 10.9245 50.8371 10.103C50.8803 9.28558 50.7538 8.46806 50.4656 7.70193C50.1773 6.9358 49.7335 6.23766 49.1622 5.65147C48.5908 5.06528 47.9043 4.60376 47.1458 4.29595C46.3873 3.98815 45.5733 3.84074 44.7551 3.863H40.0551C39.2428 3.8495 38.4365 4.00357 37.6864 4.3156C36.9363 4.62763 36.2587 5.09093 35.6956 5.67656C35.1326 6.2622 34.6964 6.9576 34.4141 7.71936C34.1318 8.48113 34.0096 9.2929 34.0551 10.104C34.0082 10.9193 34.1289 11.7355 34.4096 12.5023C34.6904 13.2692 35.1253 13.9704 35.6875 14.5626C36.2497 15.1549 36.9273 15.6257 37.6784 15.946C38.4296 16.2663 39.2385 16.4294 40.0551 16.425L44.7551 16.424Z" fill="black"/>
<path d="M64.0112 19.797V3.863H56.6812V0.490002H74.7142V3.863H67.3842V19.797H64.0112Z" fill="black"/>
<path d="M86.6371 19.797C81.2461 19.797 77.2621 15.548 77.2621 9.944C77.1999 8.69277 77.3992 7.4423 77.8472 6.27239C78.2953 5.10248 78.9823 4.03881 79.8644 3.14926C80.7466 2.2597 81.8044 1.56378 82.9705 1.10592C84.1366 0.648051 85.3854 0.438284 86.6371 0.490003H91.3371C92.5951 0.427724 93.8523 0.629617 95.0275 1.08268C96.2028 1.53574 97.2702 2.22992 98.1609 3.12053C99.0516 4.01113 99.7458 5.07841 100.199 6.25363C100.652 7.42886 100.854 8.68596 100.792 9.944C100.792 15.544 96.8351 19.797 91.3371 19.797H86.6371ZM91.3371 16.424C92.1597 16.4364 92.976 16.2796 93.7354 15.9632C94.4947 15.6468 95.1809 15.1776 95.7513 14.5848C96.3217 13.992 96.7641 13.2882 97.051 12.5172C97.3379 11.7462 97.4632 10.9245 97.4191 10.103C97.4625 9.2855 97.3361 8.46787 97.0479 7.70162C96.7597 6.93537 96.316 6.2371 95.7446 5.65081C95.1733 5.06451 94.4867 4.60289 93.7281 4.29503C92.9695 3.98716 92.1555 3.83973 91.3371 3.862H86.6371C85.8248 3.8485 85.0185 4.00257 84.2684 4.3146C83.5184 4.62663 82.8407 5.08993 82.2777 5.67556C81.7146 6.2612 81.2784 6.9566 80.9961 7.71836C80.7139 8.48013 80.5916 9.2919 80.6371 10.103C80.5902 10.9183 80.7109 11.7345 80.9917 12.5013C81.2724 13.2682 81.7073 13.9694 82.2695 14.5616C82.8317 15.1539 83.5093 15.6247 84.2605 15.945C85.0117 16.2653 85.8205 16.4284 86.6371 16.424H91.3371Z" fill="black"/>
<path d="M122.781 19.797L117.894 14.432H110.67V11.458H118.717C121.133 11.458 122.408 10.077 122.408 7.58C122.408 5.083 121.027 3.862 118.717 3.862H108.201V19.797H104.855V0.490002H118.718C123.126 0.490002 125.729 3.225 125.729 7.528C125.729 10.715 124.242 12.972 121.745 13.928L127.562 19.797H122.781Z" fill="black"/>
<path d="M139.006 19.797C133.615 19.797 129.631 15.548 129.631 9.944C129.569 8.69269 129.768 7.44211 130.216 6.27208C130.664 5.10205 131.351 4.03826 132.233 3.14859C133.115 2.25893 134.173 1.56292 135.339 1.10499C136.506 0.647066 137.754 0.437274 139.006 0.489003H149.468V3.863H139.006C138.194 3.8495 137.388 4.00357 136.638 4.3156C135.888 4.62763 135.21 5.09093 134.647 5.67656C134.084 6.2622 133.648 6.9576 133.365 7.71936C133.083 8.48113 132.961 9.2929 133.006 10.104C132.959 10.9193 133.08 11.7355 133.361 12.5023C133.642 13.2692 134.076 13.9704 134.639 14.5626C135.201 15.1549 135.878 15.6257 136.63 15.946C137.381 16.2663 138.19 16.4294 139.006 16.425H149.468V19.798L139.006 19.797Z" fill="black"/>
<path d="M157.091 0.490002H153.718V19.797H157.091V0.490002Z" fill="black"/>
<path d="M168.135 19.797V3.863H160.805V0.490002H178.837V3.863H171.507V19.797H168.135Z" fill="black"/>
<path d="M191.322 19.797V12.467L181.07 0.490002H185.612L193.128 9.39L200.671 0.490002H204.971L194.695 12.468V19.798L191.322 19.797Z" fill="black"/>
</g>
</g>
<defs>
<clipPath id="clip0_1737_104">
<rect width="205.518" height="20.314" fill="white"/>
</clipPath>
</defs>
</svg>
