<svg width="15" height="16" viewBox="0 0 15 16" fill="none" xmlns="http://www.w3.org/2000/svg">
<g clip-path="url(#clip0_1737_274)">
<path d="M14.2063 7.29373C14.5969 7.68435 14.5969 8.31873 14.2063 8.70935L9.20625 13.7094C8.81563 14.1 8.18125 14.1 7.79063 13.7094C7.4 13.3187 7.4 12.6844 7.79063 12.2937L11.0875 8.99998H1.5C0.946875 8.99998 0.5 8.5531 0.5 7.99998C0.5 7.44685 0.946875 6.99998 1.5 6.99998H11.0844L7.79375 3.70623C7.40312 3.3156 7.40312 2.68122 7.79375 2.2906C8.18437 1.89997 8.81875 1.89997 9.20938 2.2906L14.2094 7.2906L14.2063 7.29373Z" fill="white"/>
</g>
<defs>
<clipPath id="clip0_1737_274">
<rect width="14" height="16" fill="white" transform="matrix(1 0 0 -1 0.5 16)"/>
</clipPath>
</defs>
</svg>
