<svg width="24" height="25" viewBox="0 0 24 25" fill="none" xmlns="http://www.w3.org/2000/svg">
<path d="M9.9998 14.4371L15.8998 8.53708C16.0831 8.35375 16.3165 8.26208 16.5998 8.26208C16.8831 8.26208 17.1165 8.35375 17.2998 8.53708C17.4831 8.72042 17.5748 8.95375 17.5748 9.23708C17.5748 9.52042 17.4831 9.75375 17.2998 9.93709L10.6998 16.5371C10.4998 16.7371 10.2665 16.8371 9.9998 16.8371C9.73314 16.8371 9.4998 16.7371 9.2998 16.5371L6.6998 13.9371C6.51647 13.7538 6.4248 13.5204 6.4248 13.2371C6.4248 12.9538 6.51647 12.7204 6.6998 12.5371C6.88314 12.3538 7.11647 12.2621 7.3998 12.2621C7.68314 12.2621 7.91647 12.3538 8.0998 12.5371L9.9998 14.4371Z" fill="#6207BD"/>
</svg>
