<svg width="22" height="21" viewBox="0 0 22 21" fill="none" xmlns="http://www.w3.org/2000/svg">
<g clip-path="url(#clip0_1737_443)">
<path opacity="0.29" d="M10.9639 0.583984C12.9668 0.583984 14.9248 1.17792 16.5902 2.29069C18.2556 3.40346 19.5536 4.98508 20.32 6.83555C21.0865 8.68602 21.2871 10.7222 20.8963 12.6867C20.5056 14.6511 19.5411 16.4556 18.1248 17.8719C16.7085 19.2881 14.904 20.2526 12.9396 20.6434C10.9751 21.0341 8.93895 20.8336 7.08848 20.0671C5.23801 19.3006 3.65639 18.0026 2.54362 16.3372C1.43085 14.6719 0.836914 12.7139 0.836914 10.711C0.836914 8.02514 1.90386 5.4493 3.80304 3.55011C5.70222 1.65093 8.27807 0.583984 10.9639 0.583984Z" fill="#BFC5D4"/>
<path d="M14.6028 6.69393V13.7689H7.32275V9.27493C7.32289 9.23088 7.3338 9.18752 7.35455 9.14865C7.37529 9.10978 7.40523 9.07657 7.44175 9.05193L11.0558 6.60693C11.21 6.50264 11.3916 6.44628 11.5778 6.44493L14.3308 6.42493C14.3663 6.42467 14.4015 6.43143 14.4345 6.44482C14.4674 6.4582 14.4973 6.47796 14.5226 6.50295C14.5479 6.52794 14.568 6.55768 14.5817 6.59045C14.5955 6.62323 14.6026 6.65839 14.6028 6.69393Z" stroke="black" stroke-opacity="0.9" stroke-width="1.2"/>
<path d="M7.71191 9.69397H14.2159" stroke="black" stroke-opacity="0.9" stroke-width="1.2"/>
<path d="M11.7549 11.329H13.4159" stroke="black" stroke-opacity="0.9" stroke-width="1.2"/>
</g>
<defs>
<clipPath id="clip0_1737_443">
<rect width="20.253" height="20.253" fill="white" transform="translate(0.836914 0.583984)"/>
</clipPath>
</defs>
</svg>
