<svg width="21" height="21" viewBox="0 0 21 21" fill="none" xmlns="http://www.w3.org/2000/svg">
<g clip-path="url(#clip0_1737_437)">
<path opacity="0.29" d="M10.419 0C12.4797 0 14.4941 0.611064 16.2075 1.75592C17.9209 2.90077 19.2563 4.528 20.0449 6.43182C20.8335 8.33564 21.0398 10.4306 20.6378 12.4516C20.2358 14.4727 19.2435 16.3292 17.7863 17.7863C16.3292 19.2435 14.4727 20.2358 12.4516 20.6378C10.4306 21.0398 8.33564 20.8335 6.43182 20.0449C4.528 19.2563 2.90077 17.9209 1.75592 16.2075C0.611064 14.4941 0 12.4797 0 10.419C0 7.65571 1.09771 5.0056 3.05165 3.05165C5.0056 1.09771 7.65571 0 10.419 0Z" fill="#BFC5D4"/>
<path fill-rule="evenodd" clip-rule="evenodd" d="M7.82009 6.00903H11.1021V6.82903H9.87109V7.47903H13.6521V8.70403H14.8281V10.522H15.4781V9.29103H16.2991V12.573H15.4781V11.342H14.8281V13.604H13.6521V14.829H8.58209L6.00809 12.991V10.791H5.35809V12.022H4.53809V8.74403H5.35909V9.97503H6.00909V7.47503H9.05209V6.82503H7.82009V6.00903ZM12.7701 12.686H13.9461V9.62203H12.7701V8.39703H6.89009V12.615L8.94809 13.915H12.7701V12.686Z" fill="black" fill-opacity="0.9"/>
</g>
<defs>
<clipPath id="clip0_1737_437">
<rect width="20.837" height="20.837" fill="white"/>
</clipPath>
</defs>
</svg>
