<svg width="11" height="10" viewBox="0 0 11 10" fill="none" xmlns="http://www.w3.org/2000/svg">
<g clip-path="url(#clip0_1737_348)">
<path d="M10.0512 3.82149C10.0189 3.72172 9.95796 3.63365 9.87599 3.56822C9.79403 3.50279 9.69465 3.4629 9.5902 3.45349L6.6812 3.18849L5.5312 0.496495C5.48983 0.400174 5.42112 0.318098 5.33359 0.260425C5.24605 0.202751 5.14352 0.172012 5.0387 0.172012C4.93387 0.172012 4.83134 0.202751 4.7438 0.260425C4.65627 0.318098 4.58756 0.400174 4.5462 0.496495L3.4002 3.18849L0.487196 3.45249C0.383121 3.46278 0.284329 3.50329 0.20299 3.56902C0.121652 3.63476 0.0613216 3.72286 0.0294322 3.82246C-0.00245714 3.92206 -0.00451221 4.02881 0.0235202 4.12957C0.0515527 4.23032 0.108448 4.32068 0.187196 4.38949L2.3872 6.31749L1.7332 9.17449C1.70899 9.27727 1.71573 9.38491 1.75258 9.48386C1.78943 9.58281 1.85473 9.66865 1.94027 9.73056C2.02581 9.79246 2.12775 9.82768 2.23326 9.83176C2.33877 9.83584 2.44313 9.80861 2.5332 9.75349L5.0422 8.25349L7.5502 9.75349C7.64033 9.8081 7.74455 9.83492 7.84984 9.83062C7.95514 9.82631 8.05682 9.79106 8.14219 9.72927C8.22756 9.66749 8.29282 9.58191 8.32982 9.48324C8.36681 9.38456 8.3739 9.27717 8.3502 9.17449L7.7002 6.31849L9.9002 4.39049C9.97919 4.32143 10.0362 4.2307 10.0641 4.12955C10.092 4.02841 10.0896 3.92129 10.0572 3.82149H10.0512Z" fill="white"/>
</g>
<defs>
<clipPath id="clip0_1737_348">
<rect width="10.077" height="9.657" fill="white" transform="translate(0 0.171494)"/>
</clipPath>
</defs>
</svg>
