<svg width="16" height="16" viewBox="0 0 16 16" fill="none" xmlns="http://www.w3.org/2000/svg">
<path d="M7.34375 8.4375L6.46875 7.5625C6.34375 7.4375 6.19792 7.375 6.03125 7.375C5.86458 7.375 5.71875 7.4375 5.59375 7.5625C5.46875 7.6875 5.40625 7.83594 5.40625 8.00781C5.40625 8.17969 5.46875 8.32812 5.59375 8.45312L6.90625 9.78125C7.03125 9.90625 7.17708 9.96875 7.34375 9.96875C7.51042 9.96875 7.65625 9.90625 7.78125 9.78125L10.4375 7.125C10.5625 7 10.625 6.85156 10.625 6.67969C10.625 6.50781 10.5625 6.35938 10.4375 6.23438C10.3125 6.10938 10.1641 6.04688 9.99219 6.04688C9.82031 6.04688 9.67188 6.10938 9.54688 6.23438L7.34375 8.4375ZM8 14.1875C7.92708 14.1875 7.85938 14.1823 7.79688 14.1719C7.73438 14.1615 7.67188 14.1458 7.60938 14.125C6.20312 13.6562 5.08333 12.7891 4.25 11.5234C3.41667 10.2578 3 8.89583 3 7.4375V4.48438C3 4.22396 3.07552 3.98958 3.22656 3.78125C3.3776 3.57292 3.57292 3.42188 3.8125 3.32812L7.5625 1.92188C7.70833 1.86979 7.85417 1.84375 8 1.84375C8.14583 1.84375 8.29167 1.86979 8.4375 1.92188L12.1875 3.32812C12.4271 3.42188 12.6224 3.57292 12.7734 3.78125C12.9245 3.98958 13 4.22396 13 4.48438V7.4375C13 8.89583 12.5833 10.2578 11.75 11.5234C10.9167 12.7891 9.79688 13.6562 8.39062 14.125C8.32812 14.1458 8.26562 14.1615 8.20312 14.1719C8.14062 14.1823 8.07292 14.1875 8 14.1875ZM8 12.9375C9.08333 12.5938 9.97917 11.9062 10.6875 10.875C11.3958 9.84375 11.75 8.69792 11.75 7.4375V4.48438L8 3.07812L4.25 4.48438V7.4375C4.25 8.69792 4.60417 9.84375 5.3125 10.875C6.02083 11.9062 6.91667 12.5938 8 12.9375Z" fill="#080809"/>
</svg>
